<svg xmlns="http://www.w3.org/2000/svg" version="1.0" preserveAspectRatio="xMidYMid meet" viewBox="60 136 774.48 702.55">

    <g transform="translate(0.000000,911.000000) scale(0.100000,-0.100000)">
        <path d="M6628 7741 c-36 -3 -70 -9 -74 -14 -4 -4 -11 -132 -16 -285 -11 -377 -10 -4386 2 -4897 8 -361 23 -689 35 -750 4 -20 6 -21 177 -8 173 13 428 45 503 64 22 5 88 24 146 40 l107 31 6 2066 c3 1137 9 2448 12 2915 l6 847 -418 -2 c-231 0 -449 -4 -486 -7z" stroke="none" fill="#1375fc" fill-rule="evenodd"/>
        <path d="M3430 7313 c-239 -87 -547 -221 -1084 -475 -417 -197 -1033 -493 -1453 -700 l-293 -144 190 -22 c195 -24 334 -52 353 -71 7 -7 -11 -61 -68 -193 -147 -341 -160 -406 -152 -771 8 -376 61 -651 192 -992 369 -960 1198 -1904 2199 -2504 615 -369 1253 -590 1967 -681 967 -123 1863 77 2454 548 120 96 277 267 361 393 98 148 193 380 230 564 25 125 25 459 0 595 -41 226 -113 456 -140 447 -8 -3 -10 -81 -8 -268 3 -235 1 -277 -18 -379 -24 -130 -83 -317 -131 -411 -91 -182 -254 -379 -414 -501 -250 -191 -579 -322 -960 -382 -707 -113 -1561 40 -2343 419 -309 150 -546 290 -777 458 -641 468 -1112 1007 -1437 1647 -225 443 -340 870 -325 1204 6 147 30 243 93 375 45 95 46 96 59 70 29 -55 78 -187 89 -244 21 -99 51 -88 175 70 92 117 148 197 591 855 425 631 532 786 647 938 51 68 93 132 93 143 0 15 -7 19 -37 18 -21 0 -45 -3 -53 -6z" stroke="none" fill="#f2880b" fill-rule="evenodd"/>
        <path d="M5201 7033 c-24 -124 -30 -666 -30 -2833 l-1 -2145 63 -32 c90 -46 126 -58 277 -97 252 -65 488 -106 608 -106 l54 0 -6 1168 c-3 642 -9 1823 -12 2624 l-6 1457 -27 5 c-14 3 -192 8 -396 11 -203 3 -402 8 -441 11 l-70 5 -13 -68z" stroke="none" fill="#1375fc" fill-rule="evenodd"/>
        <path d="M3930 6382 l-55 -7 -8 -60 c-4 -33 -10 -864 -13 -1847 l-6 -1786 104 -68 c210 -137 818 -457 835 -440 8 8 10 4192 2 4200 -7 7 -801 14 -859 8z" stroke="none" fill="#1375fc" fill-rule="evenodd"/>

        <path d="M2550 5682 c-32 -6 -36 -11 -43 -52 -4 -25 -11 -417 -14 -872 l-5 -827 133 -158 c212 -250 639 -669 761 -747 26 -17 27 -17 38 5 25 46 30 392 21 1508 -5 623 -11 1134 -13 1137 -8 7 -842 13 -878 6z" stroke="none" fill="#1375fc" fill-rule="evenodd"/>
    </g>
</svg>