<svg xmlns="http://www.w3.org/2000/svg" xmlns:xlink="http://www.w3.org/1999/xlink" id="svg" version="1.1" viewBox="7.41 142.96 339.18 67.47">
    <g id="svgg">
        <path id="path0" d="M224.691 143.210 C 224.371 143.530,224.368 192.150,224.689 196.660 L 224.933 200.101 227.744 199.876 C 229.290 199.753,231.306 199.431,232.222 199.162 L 233.889 198.671 233.984 170.817 L 234.079 142.963 229.509 142.963 C 226.995 142.963,224.827 143.074,224.691 143.210 M63.485 177.500 L 47.731 209.074 49.636 209.187 C 52.144 209.336,51.769 209.821,56.852 199.842 L 61.296 191.118 75.926 191.124 L 90.556 191.129 95.000 200.102 L 99.444 209.074 105.093 209.176 C 109.191 209.250,110.741 209.161,110.741 208.849 C 110.741 208.296,79.722 145.926,79.447 145.926 C 79.334 145.926,72.151 160.134,63.485 177.500 M320.926 148.000 C 307.481 149.215,300.185 155.389,300.185 165.556 C 300.185 175.350,306.124 180.355,321.296 183.350 C 329.570 184.982,333.601 187.359,334.985 191.420 C 340.845 208.619,314.005 212.801,301.942 196.568 L 301.180 195.544 299.865 196.383 C 297.987 197.581,298.439 198.562,302.778 202.703 C 318.422 217.636,347.758 209.503,346.553 190.568 C 345.886 180.087,339.233 174.464,323.327 170.936 C 312.225 168.474,309.165 165.286,311.137 158.240 C 313.488 149.843,330.069 149.105,338.889 157.005 C 340.859 158.770,340.793 158.756,342.078 157.651 C 343.384 156.528,343.180 156.071,340.302 153.676 C 335.286 149.500,327.989 147.363,320.926 148.000 M114.535 178.611 L 114.630 209.074 120.370 209.074 L 126.111 209.074 126.296 194.815 L 126.481 180.556 136.667 180.327 C 146.992 180.095,147.788 180.002,151.607 178.573 C 164.414 173.781,166.853 159.711,156.100 152.641 C 150.159 148.735,146.554 148.154,128.239 148.151 L 114.440 148.148 114.535 178.611 M250.090 178.577 L 250.185 209.074 255.926 209.074 L 261.667 209.074 261.762 180.426 L 261.856 151.779 268.243 151.919 C 277.896 152.131,281.173 154.671,282.078 162.645 C 283.067 171.367,278.712 176.030,269.382 176.237 C 266.259 176.306,263.704 176.498,263.704 176.662 C 263.704 176.827,264.934 179.040,266.437 181.579 C 267.940 184.118,270.629 188.760,272.412 191.894 C 274.195 195.028,276.024 198.176,276.476 198.889 C 276.928 199.602,278.278 201.935,279.477 204.074 C 282.677 209.782,281.681 209.259,289.363 209.259 L 295.969 209.259 294.755 206.944 C 294.088 205.671,293.264 204.213,292.925 203.704 C 292.585 203.194,290.176 199.111,287.571 194.630 C 284.965 190.148,281.857 184.815,280.664 182.778 L 278.495 179.075 280.792 178.610 C 294.909 175.753,298.006 157.539,285.424 151.369 C 279.562 148.495,279.312 148.459,263.609 148.256 L 249.996 148.079 250.090 178.577 M7.407 148.662 C 7.407 148.889,11.715 158.970,13.004 161.760 C 13.593 163.034,14.074 164.180,14.074 164.306 C 14.074 164.433,14.638 165.807,15.328 167.361 C 16.018 168.914,17.533 172.435,18.695 175.185 C 19.857 177.935,21.292 181.227,21.885 182.501 C 22.478 183.775,22.963 184.896,22.963 184.993 C 22.963 185.151,28.952 199.326,30.165 202.037 C 30.438 202.648,31.284 204.610,32.045 206.396 C 32.805 208.182,33.543 209.716,33.685 209.803 C 33.827 209.891,35.083 207.263,36.477 203.963 C 37.871 200.663,39.567 196.742,40.247 195.251 C 40.926 193.759,41.481 192.469,41.481 192.384 C 41.481 192.299,42.960 188.770,44.767 184.541 C 62.678 142.621,60.522 148.450,58.063 148.592 L 56.127 148.704 54.032 153.519 C 52.879 156.167,50.813 161.000,49.441 164.259 C 48.068 167.519,46.725 170.685,46.456 171.296 C 46.187 171.907,44.772 175.241,43.312 178.704 C 41.853 182.167,40.370 185.667,40.017 186.481 C 39.665 187.296,39.163 188.505,38.902 189.167 C 38.122 191.150,38.101 191.123,35.489 184.815 C 34.688 182.880,33.809 180.796,33.536 180.185 C 33.264 179.574,31.918 176.407,30.545 173.148 C 25.731 161.716,23.965 157.555,22.058 153.148 L 20.134 148.704 13.771 148.602 C 10.271 148.547,7.407 148.574,7.407 148.662 M211.710 150.431 C 211.579 151.088,211.478 161.924,211.487 174.512 L 211.503 197.399 212.524 197.928 C 213.650 198.510,218.682 199.630,220.172 199.630 L 221.116 199.630 221.021 174.537 L 220.926 149.444 216.437 149.341 L 211.949 149.237 211.710 150.431 M144.216 152.801 C 153.489 156.482,154.096 171.082,145.157 175.455 C 142.824 176.596,139.358 177.021,132.315 177.030 L 126.296 177.037 126.296 164.413 L 126.296 151.789 134.352 151.936 C 141.225 152.061,142.673 152.188,144.216 152.801 M199.147 156.162 C 199.005 156.304,198.889 164.291,198.889 173.912 L 198.889 191.404 200.648 192.525 C 202.415 193.651,207.528 196.296,207.936 196.296 C 208.056 196.296,208.111 187.255,208.059 176.204 L 207.963 156.111 203.684 156.007 C 201.331 155.950,199.289 156.020,199.147 156.162 M186.184 162.828 C 186.042 162.970,185.926 166.777,185.926 171.288 L 185.926 179.489 187.643 181.504 C 189.610 183.812,193.576 187.656,194.542 188.189 C 195.161 188.531,195.190 187.878,195.097 175.664 L 195.000 162.778 190.721 162.674 C 188.368 162.617,186.326 162.686,186.184 162.828 M76.589 164.369 C 76.937 165.142,78.871 168.933,80.886 172.795 C 87.936 186.305,88.519 187.435,88.519 187.606 C 88.519 187.700,82.852 187.778,75.926 187.778 C 68.516 187.778,63.333 187.638,63.333 187.437 C 63.333 186.736,75.239 162.963,75.590 162.963 C 75.791 162.963,76.241 163.596,76.589 164.369 " stroke="none" fill="#1375fc" fill-rule="evenodd"/>
        <path id="path2" d="M187.222 150.506 C 183.148 152.403,177.148 155.265,173.889 156.867 L 167.963 159.779 170.673 160.112 C 172.481 160.335,173.320 160.588,173.194 160.871 C 170.982 165.837,170.936 166.027,170.964 170.000 C 171.068 184.526,185.988 201.919,203.238 207.622 C 225.229 214.893,245.004 205.205,241.504 188.877 C 240.748 185.352,239.984 184.132,240.235 186.852 C 242.260 208.740,208.904 210.493,189.027 189.543 C 181.474 181.582,177.214 170.189,179.876 165.074 L 180.493 163.889 180.971 165.000 C 181.233 165.611,181.456 166.310,181.465 166.552 C 181.519 167.974,182.618 166.770,186.339 161.212 C 192.040 152.699,194.449 149.179,195.048 148.489 C 196.994 146.248,195.595 146.608,187.222 150.506 " stroke="none" fill="#f2880b" fill-rule="evenodd"/>
    </g>
</svg>